<?xml version="1.0" encoding="utf-8"?>
<!-- Generator: Adobe Illustrator 25.4.1, SVG Export Plug-In . SVG Version: 6.00 Build 0)  -->
<svg version="1.1" id="Layer_1" xmlns="http://www.w3.org/2000/svg" xmlns:xlink="http://www.w3.org/1999/xlink" x="0px" y="0px"
	 viewBox="0 0 595.28 841.89" style="enable-background:new 0 0 595.28 841.89;" xml:space="preserve">
<style type="text/css">
	.st0{opacity:0.64;fill:url(#SVGID_1_);}
	.st1{opacity:0.64;fill:url(#SVGID_00000077290094919661171180000015608021713464633986_);}
	.st2{fill:url(#SVGID_00000171713349555075378460000012770944998775807637_);}
	.st3{opacity:0.64;fill:url(#SVGID_00000132049204041123724180000004876736092789657764_);}
</style>
<linearGradient id="SVGID_1_" gradientUnits="userSpaceOnUse" x1="313.0558" y1="48.3657" x2="-14.0316" y2="861.4114">
	<stop  offset="0" style="stop-color:#FFFFFF;stop-opacity:0"/>
	<stop  offset="0.5236" style="stop-color:#FFFFFF"/>
	<stop  offset="1" style="stop-color:#FFFFFF;stop-opacity:0"/>
</linearGradient>
<path class="st0" d="M-51.6,905.83c-0.5,0-1-0.19-1.39-0.56c-0.8-0.77-0.82-2.03-0.05-2.83
	c168.9-175.37,287.43-335.79,352.32-476.81c51.52-111.97,69.45-211.83,53.29-296.83C338.83,56.53,302.42,8.67,274.29-18.76
	c-30.51-29.75-58.14-42.55-58.41-42.68c-1-0.46-1.45-1.65-0.99-2.65c0.46-1,1.65-1.45,2.65-0.99c0.28,0.13,28.41,13.14,59.4,43.31
	c28.58,27.82,65.57,76.38,79.54,149.73c16.34,85.83-1.67,186.51-53.53,299.26C237.89,568.67,119.08,729.49-50.16,905.22
	C-50.55,905.63-51.08,905.83-51.6,905.83z"/>
<linearGradient id="SVGID_00000038410925386096322330000011457457384617121666_" gradientUnits="userSpaceOnUse" x1="273.5371" y1="27.4787" x2="16.0782" y2="667.448">
	<stop  offset="0" style="stop-color:#FFFFFF;stop-opacity:0"/>
	<stop  offset="0.5236" style="stop-color:#FFFFFF"/>
	<stop  offset="1" style="stop-color:#FFFFFF;stop-opacity:0"/>
</linearGradient>
<path style="opacity:0.64;fill:url(#SVGID_00000038410925386096322330000011457457384617121666_);" d="M-79.16,675.92
	c-0.5,0-1-0.14-1.39-0.43c-0.8-0.58-0.82-1.55-0.05-2.16C88.3,539.48,206.83,417.04,271.72,309.42
	c51.52-85.46,69.45-161.68,53.29-226.55c-13.74-55.17-50.15-91.7-78.28-112.63c-30.51-22.7-58.14-32.48-58.41-32.57
	c-1-0.35-1.45-1.26-0.99-2.02c0.46-0.77,1.65-1.1,2.65-0.76c0.28,0.1,28.41,10.03,59.4,33.06c28.58,21.23,65.57,58.3,79.54,114.28
	c16.34,65.51-1.67,142.35-53.53,228.41C210.33,418.58,91.52,541.33-77.72,675.45C-78.11,675.76-78.63,675.92-79.16,675.92z"/>
<linearGradient id="SVGID_00000043438111879063944310000002254331579923162787_" gradientUnits="userSpaceOnUse" x1="313.6416" y1="21.2678" x2="8.2039" y2="780.4988">
	<stop  offset="0.0254" style="stop-color:#FFFFFF;stop-opacity:0"/>
	<stop  offset="0.3237" style="stop-color:#FFFFFF"/>
	<stop  offset="1" style="stop-color:#FFFFFF;stop-opacity:0"/>
</linearGradient>
<path style="fill:url(#SVGID_00000043438111879063944310000002254331579923162787_);" d="M71.27,907.14c-1.06,0-2.14-0.34-3.05-1.04
	c-2.19-1.68-2.6-4.82-0.91-7.01c109.87-142.83,185.57-278.21,224.99-402.38c32.21-101.45,40.5-196.13,24.66-281.41
	c-17.01-91.53-59.21-155.65-91.62-193.33c-35.04-40.74-66.26-60-66.57-60.19c-2.36-1.44-3.1-4.51-1.67-6.87
	c1.44-2.36,4.51-3.1,6.87-1.67c1.33,0.81,32.89,20.29,68.95,62.21c33.21,38.61,76.46,104.31,93.87,198.02
	c16.15,86.91,7.75,183.23-24.96,286.26C262.05,625.02,185.82,761.43,75.23,905.19C74.25,906.47,72.76,907.14,71.27,907.14z"/>
<linearGradient id="SVGID_00000083051386881995692740000015545249741762035113_" gradientUnits="userSpaceOnUse" x1="413.3658" y1="71.0529" x2="133.491" y2="766.7416">
	<stop  offset="0" style="stop-color:#FFFFFF;stop-opacity:0"/>
	<stop  offset="0.5236" style="stop-color:#FFFFFF"/>
	<stop  offset="0.9467" style="stop-color:#FFFFFF;stop-opacity:0"/>
</linearGradient>
<path style="opacity:0.64;fill:url(#SVGID_00000083051386881995692740000015545249741762035113_);" d="M297.15,875.04
	c-0.38,0-0.76-0.11-1.1-0.33c-0.92-0.61-1.17-1.85-0.56-2.77c86.87-131.01,143.46-254.83,168.2-368.03
	c20.75-94.91,19.4-183.45-4-263.16c-13.53-46.07-34.54-89.52-62.46-129.15c-22.35-31.72-49.14-61.08-79.64-87.27
	c-51.97-44.61-97.28-64.78-97.73-64.98c-1.01-0.44-1.47-1.62-1.03-2.64c0.45-1.01,1.62-1.47,2.64-1.03
	c0.46,0.2,46.21,20.55,98.6,65.5c30.77,26.4,57.81,56,80.36,88c28.2,40,49.42,83.87,63.08,130.37
	c23.61,80.37,24.99,169.58,4.1,265.16c-24.85,113.69-81.64,237.98-168.79,369.43C298.43,874.72,297.8,875.04,297.15,875.04z"/>
</svg>
