<svg width="1024" height="1024" viewBox="0 0 1024 1024" fill="none" xmlns="http://www.w3.org/2000/svg">
<rect width="1024" height="1024" fill="#6816C5"/>
<path d="M865.031 271C876.874 271 886.496 274.672 893.897 282.017C901.299 289.362 905 298.543 905 309.56V710.997C905 722.932 900.559 733.031 891.677 741.294C883.288 749.098 872.679 753 859.85 753C852.941 753 846.033 752.082 839.125 750.246C832.71 747.951 828.022 744.967 825.062 741.294L553.419 420.42L536.116 710.997C536.116 722.014 535.695 722.908 527.8 730.253C520.398 737.598 524.305 753 511.969 753C500.126 753 490.504 749.328 483.103 741.983C475.701 734.638 472 725.457 472 714.44V313.003C472 301.068 475.252 289.53 483.641 281.726C492.523 273.463 502.598 271 512.256 271C526.683 271 535.069 274.801 546.594 284.229C558.118 293.657 824.321 605.646 824.321 605.646V309.56C824.321 298.543 828.022 289.362 835.424 282.017C843.319 274.672 853.188 271 865.031 271Z" fill="black"/>
<path d="M513.754 271C525.679 271 535.368 274.672 542.821 282.017C550.273 289.362 554 298.543 554 309.56V710.997C554 722.932 549.528 733.031 540.585 741.294C532.138 749.098 521.455 753 508.537 753C501.581 753 494.624 752.082 487.668 750.246C481.209 747.95 476.489 744.967 473.508 741.294L199.983 420.42V714.44C199.983 725.457 196.008 734.638 188.058 741.983C180.605 749.328 170.668 753 158.246 753C146.321 753 136.632 749.328 129.179 741.983C121.726 734.638 118 725.457 118 714.44V313.003C118 301.068 122.223 291.198 130.67 283.394C139.614 275.131 150.545 271 163.463 271C170.916 271 178.121 272.377 185.077 275.131C192.53 277.886 197.995 281.558 201.473 286.149L472.762 605.646V309.56C472.762 298.543 476.489 289.362 483.942 282.017C491.892 274.672 501.829 271 513.754 271Z" fill="white"/>
</svg>
